<?xml version="1.0" encoding="UTF-8" standalone="no"?>
<svg
   xmlns:dc="http://purl.org/dc/elements/1.1/"
   xmlns:cc="http://creativecommons.org/ns#"
   xmlns:rdf="http://www.w3.org/1999/02/22-rdf-syntax-ns#"
   xmlns:svg="http://www.w3.org/2000/svg"
   xmlns="http://www.w3.org/2000/svg"
   xmlns:xlink="http://www.w3.org/1999/xlink"
   xmlns:sodipodi="http://sodipodi.sourceforge.net/DTD/sodipodi-0.dtd"
   xmlns:inkscape="http://www.inkscape.org/namespaces/inkscape"
   xml:space="preserve"
   width="189.9753"
   height="218.66264"
   style="fill-rule:evenodd"
   viewBox="0 0 53.615253 61.711458"
   sodipodi:version="0.33beta"
   inkscape:version="0.48.4 r9939"
   sodipodi:docname="logotipo-transparencia-sjc.svg"
   id="svg559"
   version="1.1"
   inkscape:export-filename="/home/teles/logotipo-transparencia-sjc.png"
   inkscape:export-xdpi="180"
   inkscape:export-ydpi="180"><metadata
     id="metadata41" /><sodipodi:namedview
     id="namedview597"
     showgrid="false"
     inkscape:zoom="2.3769385"
     inkscape:cx="131.74341"
     inkscape:cy="115.05974"
     inkscape:window-width="1920"
     inkscape:window-height="1014"
     inkscape:window-x="0"
     inkscape:window-y="27"
     inkscape:window-maximized="1"
     inkscape:current-layer="svg559"
     fit-margin-top="0"
     fit-margin-left="0"
     fit-margin-right="0"
     fit-margin-bottom="0"
     showguides="true"
     inkscape:guide-bbox="true"
     inkscape:showpageshadow="false" /><defs
     id="defs560"><style
       type="text/css"
       id="style561">.fil1 {fill:#0093DD}
    .fil2 {fill:#FFF500}
    .fil0 {fill:white}</style><metadata
       id="CorelCorpID_0Corel-Layer" /><sodipodi:namedview
       id="base"
       pagecolor="#ffffff"
       bordercolor="#666666"
       borderopacity="1.0"
       inkscape:pageopacity="0.0"
       inkscape:pageshadow="2"
       inkscape:zoom="0.35000000"
       inkscape:cx="375.00000"
       inkscape:cy="520.00000"
       inkscape:document-units="px"
       inkscape:current-layer="layer1"
       inkscape:window-width="1024"
       inkscape:window-height="712"
       inkscape:window-x="-4"
       inkscape:window-y="-4" /><metadata
       id="metadata7"><rdf:RDF><cc:Work
           rdf:about=""><dc:format>image/svg+xml</dc:format><dc:type
             rdf:resource="http://purl.org/dc/dcmitype/StillImage" /><dc:title></dc:title></cc:Work></rdf:RDF></metadata><sodipodi:namedview
       id="namedview590"
       pagecolor="#ffffff"
       bordercolor="#666666"
       borderopacity="1.0"
       inkscape:pageopacity="0.0"
       inkscape:pageshadow="2"
       inkscape:zoom="0.35000000"
       inkscape:cx="375.00000"
       inkscape:cy="520.00000"
       inkscape:document-units="px"
       inkscape:current-layer="layer1"
       inkscape:window-width="1024"
       inkscape:window-height="712"
       inkscape:window-x="-4"
       inkscape:window-y="-4" /><metadata
       id="metadata591"><rdf:RDF><cc:Work
           rdf:about=""><dc:format>image/svg+xml</dc:format><dc:type
             rdf:resource="http://purl.org/dc/dcmitype/StillImage" /></cc:Work></rdf:RDF></metadata><sodipodi:namedview
       id="namedview593"
       pagecolor="#ffffff"
       bordercolor="#666666"
       borderopacity="1.0"
       inkscape:pageopacity="0.0"
       inkscape:pageshadow="2"
       inkscape:zoom="0.35000000"
       inkscape:cx="375.00000"
       inkscape:cy="520.00000"
       inkscape:document-units="px"
       inkscape:current-layer="layer1"
       inkscape:window-width="1024"
       inkscape:window-height="712"
       inkscape:window-x="-4"
       inkscape:window-y="-4" /><metadata
       id="metadata594"><rdf:RDF><cc:Work
           rdf:about=""><dc:format>image/svg+xml</dc:format><dc:type
             rdf:resource="http://purl.org/dc/dcmitype/StillImage" /></cc:Work></rdf:RDF></metadata><linearGradient
       x1="-3.6545999"
       y1="-42.139999"
       x2="23.875"
       gradientUnits="userSpaceOnUse"
       y2="28.921"
       id="linearGradient3278"><stop
         offset="0"
         stop-color="#ffffff"
         id="stop3274" /><stop
         offset="1"
         stop-opacity="0"
         stop-color="#ffffff"
         id="stop3276" /></linearGradient><linearGradient
       y2="42.618999"
       y1="5.3530002"
       x2="0"
       gradientUnits="userSpaceOnUse"
       id="linearGradient3263"><stop
         offset="0"
         stop-opacity=".8"
         stop-color="#ffffff"
         id="stop3259" /><stop
         offset="1"
         stop-opacity="0"
         stop-color="#ffffff"
         id="stop3261" /></linearGradient><radialGradient
       r="27.457001"
       gradientTransform="matrix(1,0,0,0.13712,0,48.787)"
       cx="46.374001"
       cy="56.540001"
       gradientUnits="userSpaceOnUse"
       id="radialGradient3250"><stop
         offset="0"
         stop-color="#2e3436"
         id="stop3246" /><stop
         offset="1"
         stop-opacity="0"
         stop-color="#2e3436"
         id="stop3248" /></radialGradient><clipPath
       clipPathUnits="userSpaceOnUse"
       id="clipPath4040"><path
         d="m 140.1728,17.176886 c -29.61703,0.799164 -35.19052,22.658673 -33.60781,39.103572 0.24555,2.553744 1.41196,4.882732 3.26153,6.948606 0.17375,-1.621038 0.41085,-3.215597 0.74449,-4.78583 -0.12412,1.393624 -0.17725,2.819818 -0.17725,4.254221 0,13.239765 5.4315,24.936518 13.68423,31.835327 -0.54978,3.236561 -1.78695,5.999448 -3.61595,9.359018 l -30.914776,6.62493 c -14.98567,3.46892 -16.11954,24.80395 -15.10242,35.62792 133.501256,-0.37684 -0.25773,0.22543 133.440696,-0.28263 -0.45759,-11.83336 -2.12981,-32.86557 -17.37152,-36.12589 l -29.28226,-5.56507 c -0.002,-0.0945 0.007,-0.18903 0,-0.2836 l -1.80801,-9.961957 c 7.87018,-6.962737 13.01064,-18.359366 13.01064,-31.232725 0,-0.130009 0.001,-0.260287 0,-0.389959 0.12708,0.648698 0.25362,1.290095 0.35453,1.843473 1.6784,-2.263175 1.28474,-6.137396 1.73712,-9.182038 2.35371,-15.84095 -6.56605,-37.32369 -31.37438,-37.791372 -1.00602,-0.01891 -2.02247,-0.02577 -2.97788,0 z"
         id="path4042"
         inkscape:connector-curvature="0"
         style="fill:#555753;fill-rule:evenodd;stroke:#323232;stroke-width:3.50593042" /></clipPath><radialGradient
       r="49.318001"
       cx="105.08"
       cy="144.17999"
       gradientUnits="userSpaceOnUse"
       id="id0"><stop
         offset="0"
         stop-color="#FEFEFE"
         id="stop9" /><stop
         offset="1"
         stop-color="#ccc"
         id="stop11" /></radialGradient><style
       type="text/css"
       id="style6">
    .fil1 {fill:black;fill-rule:nonzero}
    .fil2 {fill:white;fill-rule:nonzero}
    .fil0 {fill:url(#id0)}
  </style><clipPath
       clipPathUnits="userSpaceOnUse"
       id="clipPath4102"><path
         style="fill:#000000;fill-rule:nonzero"
         d="m 144.64961,35.666507 c -8.23149,-0.01185 -12.22665,6.034814 -13.61722,11.92389 -1.4344,6.07859 0.2499,12.917574 -0.0882,12.832292 -0.33804,-0.08481 -0.0858,3.045525 0.92605,6.843889 1.01379,3.798246 3.20795,3.871737 3.54541,3.871737 0.33805,0 1.34355,4.903758 1.59632,6.67632 0.25478,1.772561 3.64204,4.979687 3.81,5.485694 0.0456,0.137327 -0.006,0.277371 -0.10583,0.423334 l 0.0265,0.0088 c 0,0 -1.27571,3.120362 1.34055,6.667501 2.61828,3.545123 3.21123,5.232871 4.05695,4.303889 0.8437,-0.92839 3.11882,-4.051659 5.3975,-5.909028 2.28023,-1.857373 7.17997,-6.170282 8.02569,-7.267223 0.8437,-1.09682 1.01424,-2.610612 1.01424,-3.792361 0,-0.01966 0.004,-0.02775 0.009,-0.0441 -0.0579,-0.02659 -0.097,-0.0441 -0.097,-0.0441 0,0 -0.42316,-7.091223 0.75847,-6.923264 1.1821,0.170089 2.79042,-0.505793 3.46604,-1.349375 0.67574,-0.844056 0.93243,-2.707502 1.69333,-5.829653 0.75889,-3.124401 -0.67909,-4.383265 -0.67909,-4.383265 0,0 1.56064,-6.967926 -0.50271,-13.34382 -1.29735,-4.015596 -4.46557,-7.326743 -8.59014,-8.872362 -3.30859,-1.238958 -7.25773,-1.073559 -11.16542,-1.26118 -0.2613,-0.01279 -0.52322,-0.01693 -0.77611,-0.01764 l -0.0441,0 z m 18.63549,46.857711 0,0.01764 c 0,2.530862 -1.27065,8.878952 -2.87514,12.594168 -1.6046,3.712134 -3.21375,13.661224 -3.88938,17.374304 -0.67573,3.71451 -3.71046,21.4515 -3.88055,22.29556 -0.16796,0.8437 -0.42333,1.34937 -0.42333,1.34937 0,0 -0.67358,-15.70419 -0.75848,-17.39194 -0.0847,-1.6893 -1.26637,-10.38409 -3.12208,-13.4232 -1.85785,-3.03936 3.54521,-5.741035 4.89479,-6.499928 1.35184,-0.760905 3.12209,-1.42875 3.12209,-1.42875 l -3.12209,-2.619375 c 0,0 -0.25026,2.27794 -3.88055,2.531181 -3.62994,0.252767 -5.74505,-1.105253 -6.42056,-0.176389 -0.67582,0.928864 -0.75847,-3.122084 -0.75847,-3.122084 0,0 -3.11555,0.520435 -2.9457,1.111251 0.16784,0.590815 4.46797,5.982984 4.38327,10.204094 -0.0849,4.22145 -3.29001,14.09932 -3.71299,17.55952 -0.42084,3.4621 -0.67028,9.71021 -0.67028,9.71021 -3.03925,-12.07214 -3.71667,-24.39533 -3.04271,-28.95424 0.6761,-4.558677 2.02809,-5.915593 2.19605,-7.858126 0.165,-1.882008 0.47439,-4.303867 0.49389,-4.45382 0.0186,-0.01915 0.0291,-0.04251 0.0441,-0.06174 -0.27683,0.30357 -0.90642,0.809052 -2.31951,1.384653 -2.27857,0.928508 -11.399,2.793416 -13.08806,3.721806 -1.68763,0.928979 -3.45818,3.119264 -4.30389,6.411737 -0.8437,3.29224 0.25547,7.4266 1.01424,11.98563 0,0 -0.58208,5.92101 -0.58208,7.35542 0,1.43486 0.0798,5.38625 -0.6791,6.14715 -0.7609,0.75877 -0.50859,3.37775 -1.43757,7.09083 -0.60041,2.40424 -1.96873,4.26828 -2.86632,5.29167 l 70.51146,0 c 0.22019,-1.37435 0.88756,-5.3566 1.65806,-6.96736 0.86668,-1.81343 1.20806,5.90299 1.25236,6.96736 l 17.35667,0 c -0.14841,-0.81611 -1.8703,-10.27619 -3.40431,-16.17486 -1.60449,-6.16329 -4.65159,-8.18516 -5.15937,-15.69862 -0.50554,-7.5131 -5.22994,-10.468679 -5.22994,-10.468679 0,0 0.7559,0.166409 -0.67909,-3.633612 -1.43487,-3.79789 -8.00868,-4.81628 -10.2041,-5.071181 -2.19542,-0.252766 -9.96383,-1.595901 -11.90625,-2.354791 -1.66727,-0.651928 -4.15032,-2.185809 -5.56507,-4.744862 z"
         id="path4104"
         inkscape:connector-curvature="0" /></clipPath><radialGradient
       inkscape:collect="always"
       xlink:href="#id0"
       id="radialGradient4123"
       gradientUnits="userSpaceOnUse"
       gradientTransform="matrix(1.1844719,0,0,1.1844719,-34.146336,-78.890482)"
       cx="105.08"
       cy="144.17999"
       r="49.318001" /><metadata
       id="metadata594-0"><rdf:RDF><cc:Work
           rdf:about=""><dc:format>image/svg+xml</dc:format><dc:type
             rdf:resource="http://purl.org/dc/dcmitype/StillImage" /></cc:Work></rdf:RDF></metadata><sodipodi:namedview
       inkscape:window-y="-4"
       inkscape:window-x="-4"
       inkscape:window-height="712"
       inkscape:window-width="1024"
       inkscape:current-layer="layer1"
       inkscape:document-units="px"
       inkscape:cy="520.00000"
       inkscape:cx="375.00000"
       inkscape:zoom="0.35000000"
       inkscape:pageshadow="2"
       inkscape:pageopacity="0.0"
       borderopacity="1.0"
       bordercolor="#666666"
       pagecolor="#ffffff"
       id="namedview593-6" /><metadata
       id="metadata591-8"><rdf:RDF><cc:Work
           rdf:about=""><dc:format>image/svg+xml</dc:format><dc:type
             rdf:resource="http://purl.org/dc/dcmitype/StillImage" /></cc:Work></rdf:RDF></metadata><sodipodi:namedview
       inkscape:window-y="-4"
       inkscape:window-x="-4"
       inkscape:window-height="712"
       inkscape:window-width="1024"
       inkscape:current-layer="layer1"
       inkscape:document-units="px"
       inkscape:cy="520.00000"
       inkscape:cx="375.00000"
       inkscape:zoom="0.35000000"
       inkscape:pageshadow="2"
       inkscape:pageopacity="0.0"
       borderopacity="1.0"
       bordercolor="#666666"
       pagecolor="#ffffff"
       id="namedview590-7" /><metadata
       id="metadata7-3"><rdf:RDF><cc:Work
           rdf:about=""><dc:format>image/svg+xml</dc:format><dc:type
             rdf:resource="http://purl.org/dc/dcmitype/StillImage" /></cc:Work></rdf:RDF></metadata><sodipodi:namedview
       inkscape:window-y="-4"
       inkscape:window-x="-4"
       inkscape:window-height="712"
       inkscape:window-width="1024"
       inkscape:current-layer="layer1"
       inkscape:document-units="px"
       inkscape:cy="520.00000"
       inkscape:cx="375.00000"
       inkscape:zoom="0.35000000"
       inkscape:pageshadow="2"
       inkscape:pageopacity="0.0"
       borderopacity="1.0"
       bordercolor="#666666"
       pagecolor="#ffffff"
       id="base-5" /><metadata
       id="CorelCorpID_0Corel-Layer-3" /><style
       id="style561-9"
       type="text/css">.fil1 {fill:#0093DD}
    .fil2 {fill:#FFF500}
    .fil0 {fill:white}</style><radialGradient
       inkscape:collect="always"
       xlink:href="#id0"
       id="radialGradient4646"
       gradientUnits="userSpaceOnUse"
       gradientTransform="matrix(1.0310824,0,0,1.0310824,-151.97478,-13.768069)"
       cx="105.08"
       cy="144.17999"
       r="49.318001" /><clipPath
       clipPathUnits="userSpaceOnUse"
       id="clipPath4671"><path
         style="fill:#1a1a1a;stroke:#333333;stroke-width:1"
         d="m 113.04954,60.308036 c -3.01046,0 -5.80319,2.550936 -5.80319,5.917848 l 0,27.022779 c 0,3.781781 2.86131,5.953126 5.80319,5.953126 l 4.26861,0 0,-38.893753 -4.26861,0 z m 41.83945,0 0,38.893753 4.26861,0 c 2.94076,0 5.80319,-2.171345 5.80319,-5.953126 l 0,-27.022779 c 0,-3.366912 -2.7947,-5.917848 -5.80319,-5.917848 l -4.26861,0 z m -33.64619,1.049514 0,36.927016 29.67744,0 0,-36.927016 -29.67744,0 z"
         id="path4673"
         inkscape:connector-curvature="0" /></clipPath><radialGradient
       inkscape:collect="always"
       xlink:href="#id0"
       id="radialGradient4947"
       gradientUnits="userSpaceOnUse"
       gradientTransform="matrix(1.0310824,0,0,1.0310824,-340.36619,-155.98937)"
       cx="105.08"
       cy="144.17999"
       r="49.318001" /><clipPath
       clipPathUnits="userSpaceOnUse"
       id="clipPath3105"><path
         style="fill:url(#radialGradient3109);fill-rule:evenodd"
         d="m -243.61122,-53.008162 0,10.629183 c -14.72855,4.840649 -25.31187,18.650921 -25.31187,35.0402785 0,20.4443715 16.45151,36.9138945 36.89587,36.9138945 20.44438,0 36.91391,-16.469523 36.91391,-36.9138945 0,-18.1734575 -13.01657,-33.1698815 -30.26615,-36.2833505 l 0,-9.386111 -18.23176,0 z"
         id="path3107"
         inkscape:connector-curvature="0" /></clipPath><radialGradient
       inkscape:collect="always"
       xlink:href="#id0"
       id="radialGradient3109"
       gradientUnits="userSpaceOnUse"
       gradientTransform="matrix(0.74826276,0,0,0.74826276,-310.64793,-115.21313)"
       cx="105.08"
       cy="144.17999"
       r="49.318001" /></defs><text
     xml:space="preserve"
     style="font-size:6.05190277px;font-style:normal;font-weight:normal;line-height:125%;letter-spacing:0px;word-spacing:0px;fill:#37abc8;fill-opacity:1;stroke:none;font-family:Sans"
     x="3.1721547"
     y="60.57975"
     id="text5155"
     sodipodi:linespacing="125%"><tspan
       sodipodi:role="line"
       id="tspan5157"
       x="3.1721547"
       y="60.57975"
       style="font-style:normal;font-variant:normal;font-weight:normal;font-stretch:normal;fill:#37abc8;fill-opacity:1;font-family:Ubuntu;-inkscape-font-specification:Ubuntu"><tspan
         style="font-weight:500;fill:#37abc8;fill-opacity:1;-inkscape-font-specification:Ubuntu Medium"
         id="tspan5159">transparência</tspan><tspan
         style="fill:#ffcc00"
         id="tspan5161"> sjc</tspan></tspan></text>
<g
     id="g3885"
     transform="translate(-217.65309,-52.330702)"><path
       sodipodi:nodetypes="ccccsccccccccscccccccccccccscccccccccccccccccscccccccccccccccccccccc"
       style="fill:#37abc8;fill-opacity:1;fill-rule:nonzero"
       d="m 242.07567,62.848135 c -2.61145,-0.0038 -3.87893,1.914555 -4.32008,3.782875 -0.45508,1.928442 0.0792,4.098121 -0.0281,4.071066 -0.10724,-0.02689 -0.0273,0.966199 0.29378,2.171235 0.32164,1.205003 1.01774,1.228316 1.12479,1.228316 0.10725,0 0.42625,1.555724 0.50645,2.118075 0.0808,0.562347 1.15543,1.579812 1.20873,1.740344 0.0145,0.04357 -0.002,0.088 -0.0335,0.134303 l 0.009,0.0029 c 0,0 -0.40471,0.989943 0.4253,2.115276 0.83065,1.124699 1.01876,1.660141 1.28707,1.365417 0.26766,-0.294533 0.98945,-1.285396 1.71237,-1.874647 0.7234,-0.589257 2.27786,-1.957535 2.54616,-2.305541 0.26767,-0.347968 0.32178,-0.82822 0.32178,-1.203133 0,-0.0061 9.9e-4,-0.0088 0.002,-0.014 -0.0183,-0.0084 -0.0307,-0.01399 -0.0307,-0.01399 0,0 -0.13425,-2.249702 0.24064,-2.196417 0.37502,0.05396 0.88527,-0.160465 1.0996,-0.428093 0.21438,-0.267775 0.29581,-0.85896 0.53721,-1.849467 0.24076,-0.991221 -0.21544,-1.390596 -0.21544,-1.390596 0,0 0.49511,-2.210588 -0.15948,-4.23335 -0.4116,-1.273956 -1.41672,-2.324425 -2.72524,-2.814774 -1.04966,-0.393063 -2.30253,-0.340589 -3.54225,-0.400113 -0.0829,-0.0041 -0.16599,-0.0054 -0.24622,-0.0056 l -0.014,0 z m 5.91214,14.865689 0,0.0056 c 0,0.802921 -0.40311,2.816863 -0.91214,3.995524 -0.50906,1.177679 -1.01957,4.334045 -1.23391,5.512026 -0.16349,0.898669 -0.65168,6.017887 -0.95067,7.741078 l 15.9087,-1.666656 c -0.16418,-0.783605 -0.34579,-1.600412 -0.52043,-2.27196 -0.50904,-1.955314 -1.47573,-2.596753 -1.63683,-4.980411 -0.16038,-2.383544 -1.65921,-3.321207 -1.65921,-3.321207 0,0 0.23982,0.05279 -0.21544,-1.152772 -0.45521,-1.204888 -2.54076,-1.527973 -3.23726,-1.608841 -0.6965,-0.08019 -3.16105,-0.506302 -3.77728,-0.747062 -0.52894,-0.206826 -1.3167,-0.69345 -1.76553,-1.505314 z m -7.73083,2.778398 c -0.0877,0.0963 -0.28756,0.256674 -0.73587,0.439284 -0.72288,0.294571 -3.61635,0.886217 -4.15221,1.180749 -0.53541,0.294722 -1.09711,0.989591 -1.36541,2.034133 -0.26767,1.044472 0.081,2.356103 0.32177,3.802463 0,0 -0.18467,1.878449 -0.18467,2.333518 0,0.455212 0.0254,1.708799 -0.21544,1.950192 -0.1495,0.149085 -0.17513,0.524774 -0.24344,1.068834 l 6.8308,1.382085 c -0.90078,-3.731693 -1.3311,-8.857345 -1.1229,-10.265687 0.21449,-1.446248 0.6434,-1.876734 0.69669,-2.493004 0.0525,-0.597071 0.1505,-1.36541 0.15669,-1.412982 0.005,-0.006 0.01,-0.01349 0.014,-0.01956 z m 1.03245,0.870175 c 0,0 -0.9884,0.165106 -0.93451,0.352546 0.0533,0.187435 1.41746,1.89811 1.39059,3.237264 -0.027,1.339262 -1.04377,4.473034 -1.17795,5.570787 -0.10269,0.84485 -0.27574,3.754506 -0.30282,4.340891 l 4.98338,0.416665 c -0.0635,-1.475234 -0.99298,-5.683755 -1.0124,-6.06981 -0.0269,-0.535933 -0.40176,-3.29437 -0.99049,-4.258533 -0.5894,-0.964241 1.12472,-1.821351 1.55288,-2.062113 0.42888,-0.241397 0.99048,-0.453274 0.99048,-0.453274 l -0.99048,-0.831 c 0,0 -0.0793,0.722681 -1.23111,0.803022 -1.15161,0.08019 -1.82263,-0.350643 -2.03693,-0.05596 -0.21441,0.294683 -0.24064,-0.990484 -0.24064,-0.990485 z"
       id="path4108"
       inkscape:connector-curvature="0" /><path
       inkscape:connector-curvature="0"
       id="polygon4535"
       d="m 217.65493,77.84539 c 0.003,0.2678 0.007,0.53658 0.0176,0.80257 l 4.31271,0.49389 c 0.10151,1.48453 0.34376,2.93132 0.7232,4.33035 l -3.91584,1.88736 c 0.6369,2.0978 1.52905,4.0895 2.63702,5.9443 l 4.0393,-1.62278 c 0.82827,1.29693 1.7857,2.50585 2.8575,3.60716 l -2.4959,3.57187 c 1.55099,1.50045 3.28271,2.81096 5.1682,3.90702 l 2.7252,-3.38667 c 1.24108,0.67363 2.55885,1.24133 3.93348,1.67569 l -0.74084,4.25098 c 1.72815,0.50503 3.53236,0.84646 5.3975,0.99659 0.33572,0.027 0.67171,0.0471 1.00542,0.0617 l 1.04069,-4.25979 c 1.34741,0.008 2.6702,-0.11216 3.95994,-0.33514 l 1.36701,4.11868 c 2.15672,-0.42695 4.23446,-1.11171 6.18243,-2.02847 l -1.10243,-4.25097 c 1.14583,-0.59065 2.23909,-1.28198 3.26319,-2.05494 l 3.07799,3.04271 c 1.70152,-1.3472 3.23391,-2.89903 4.56847,-4.62139 l -2.90159,-3.27201 c 0.7301,-1.01593 1.384,-2.09987 1.94027,-3.23674 l 4.20688,1.12889 c 0.87851,-1.94946 1.52791,-4.03025 1.92264,-6.20889 l -4.10986,-1.40229 c 0.0805,-0.52922 0.1504,-1.06325 0.19402,-1.60514 0.0446,-0.5543 0.0663,-1.10177 0.0706,-1.64923 l 4.26861,-0.78493 c -0.0493,-2.21326 -0.36285,-4.36619 -0.92604,-6.42938 l -4.31271,0.49389 c -0.38639,-1.26751 -0.88656,-2.49366 -1.48167,-3.66007 l 3.37785,-2.76931 c -1.05805,-1.90654 -2.3399,-3.67356 -3.81882,-5.2652 l -3.52778,2.51354 c -0.96343,-0.98696 -2.01476,-1.8908 -3.14854,-2.68993 l 0.30868,0.14111 1.61396,-4.01285 c -1.79216,-1.19816 -3.74684,-2.19297 -5.82083,-2.93687 l -1.86973,3.88937 c -1.05695,-0.35522 -2.15572,-0.63104 -3.28083,-0.82903 l 0,0.0441 c -0.10753,-0.0228 -0.21816,-0.0405 -0.32632,-0.0617 l 0,6.34118 c 7.36485,1.64166 12.87639,8.21082 12.87639,16.06903 0,9.09474 -7.37999,16.46591 -16.47472,16.46591 -9.09473,0 -16.46591,-7.37117 -16.46591,-16.46591 0,-7.85821 5.50452,-14.42737 12.86757,-16.06903 l 0,-6.47347 c -1.30849,0.20975 -2.57708,0.53643 -3.79236,0.97896 l -2.21368,-3.67771 c -2.03462,0.78322 -3.96386,1.79862 -5.73264,3.03389 l 1.97556,3.86292 c -1.10784,0.81733 -2.13589,1.7375 -3.07799,2.74285 l -3.80118,-2.19605 c -1.4183,1.63038 -2.64553,3.43811 -3.64243,5.38868 l 3.58952,2.40771 c -0.70123,1.45244 -1.25199,2.98879 -1.6316,4.60375 l -4.33917,-0.20284 c -0.2156,1.05703 -0.36986,2.13427 -0.45861,3.23673 -0.0657,0.81588 -0.0882,1.62196 -0.0794,2.42535 z"
       style="font-size:12px;fill:#ffcc00;fill-opacity:1;fill-rule:evenodd;stroke:none" /></g></svg>